<svg id="Layer_1" data-name="Layer 1" xmlns="http://www.w3.org/2000/svg" viewBox="0 0 90 90"><defs><style>.cls-1{fill:#eadf11;}</style></defs><title>service</title><path class="cls-1" d="M39.51,16.41A23.1,23.1,0,1,0,62.61,39.5,23.09,23.09,0,0,0,39.51,16.41Zm0,2.2a20.9,20.9,0,0,1,17.07,8.88l-2.75,2.74a4.35,4.35,0,0,0-2.22-.62,4.36,4.36,0,0,0-3.77,6.62l-7.2,7.2a4.29,4.29,0,0,0-4.45,0l-5-5a4.38,4.38,0,1,0-8-3.32H19.1A20.92,20.92,0,0,1,39.51,18.61ZM53.81,34a2.2,2.2,0,1,1-2.2-2.2A2.21,2.21,0,0,1,53.81,34ZM40.61,47.2a2.2,2.2,0,1,1-2.2-2.2A2.19,2.19,0,0,1,40.61,47.2Zm-11-11a2.2,2.2,0,1,1-2.2-2.2A2.2,2.2,0,0,1,29.62,36.21ZM49.67,57.77A20.88,20.88,0,0,1,18.74,37.3h4.44A4.35,4.35,0,0,0,29.64,40l5,5A4.35,4.35,0,0,0,34,47.2a4.4,4.4,0,1,0,8.79,0A4.35,4.35,0,0,0,42.19,45l7.2-7.2a4.25,4.25,0,0,0,2.22.62A4.39,4.39,0,0,0,56,34a4.33,4.33,0,0,0-.63-2.22l2.4-2.4A20.87,20.87,0,0,1,49.67,57.77Z"/><path class="cls-1" d="M67,23a4.41,4.41,0,0,0,4.25-3.3H78v-2.2H71.25a4.39,4.39,0,0,0-8.64,1.1,4.35,4.35,0,0,0,.62,2.22L61.3,22.76a27.49,27.49,0,1,0-6.87,39.82l3.32,3.31,1.56,1.56,8.85,8.85a5.76,5.76,0,0,0,8.15-8.15L67.46,59.3,65.9,57.74l-3.31-3.32a27.4,27.4,0,0,0,0-29.84l2.2-2.19A4.28,4.28,0,0,0,67,23Zm0-6.6a2.2,2.2,0,1,1-2.2,2.2A2.2,2.2,0,0,1,67,16.41ZM74.76,69.7a3.57,3.57,0,0,1-5,5.1l-.06,0-8.85-8.86,5-5ZM64.35,59.3l-5,5-3.05-3c.16-.12.3-.25.46-.38l.49-.4.71-.62.35-.33c.45-.42.89-.86,1.31-1.31l.33-.35c.21-.23.42-.47.62-.71s.27-.33.41-.5.25-.29.37-.45Zm-4.26-5.11c-.35.48-.71,1-1.09,1.41-.11.14-.22.26-.34.4-.33.39-.68.77-1,1.13-.15.17-.31.32-.47.48-.37.36-.75.71-1.14,1l-.4.34c-.45.38-.93.74-1.41,1.09a25.33,25.33,0,1,1,5.89-5.89Z"/></svg>